<svg width="30" height="32" viewBox="0 0 30 32" fill="none" xmlns="http://www.w3.org/2000/svg">
<path d="M20.3274 20.0004C20.3274 23.2004 16.2618 25.6004 16.2618 28.0004H13.0094C13.0094 25.6004 8.94384 23.2004 8.94384 20.0004C8.94384 16.9124 11.497 14.4004 14.6356 14.4004C17.7742 14.4004 20.3274 16.9124 20.3274 20.0004ZM16.2618 29.6004H13.0094V32.0004H16.2618V29.6004Z" fill="#FFA51E"/>
<path opacity="0.4" d="M26.0196 19.2C26.0196 21.888 25.0602 24.336 23.4502 26.272L25.7594 28.544C27.9386 26.032 29.2721 22.768 29.2721 19.2C29.2721 14.816 27.2718 10.896 24.1332 8.256L21.824 10.528C24.3771 12.576 26.0196 15.712 26.0196 19.2ZM21.141 6.4L14.636 0V4.8C6.5537 4.8 0 11.248 0 19.2C0 22.768 1.33351 26.032 3.51265 28.544L5.8219 26.272C4.21193 24.336 3.25246 21.888 3.25246 19.2C3.25246 13.024 8.35882 8 14.636 8V12.8L21.141 6.4Z" fill="#FFA51E"/>
</svg>
