<svg width="34" height="25" viewBox="0 0 34 25" fill="none" xmlns="http://www.w3.org/2000/svg">
<g opacity="0.4">
<path d="M17.4161 13.2776C20.9203 13.2776 23.73 10.4517 23.73 6.92738C23.73 3.40173 20.9203 0.577148 17.4161 0.577148C13.912 0.577148 11.1022 3.40173 11.1022 6.92738C11.1022 10.4517 13.912 13.2776 17.4161 13.2776Z" fill="#EF89EC"/>
<path d="M31.1257 8.40598C32.0323 4.8398 29.3743 1.63699 25.9897 1.63699C25.6217 1.63699 25.2698 1.67752 24.926 1.74641C24.8803 1.75722 24.8293 1.78018 24.8024 1.8207C24.7715 1.87204 24.7944 1.94093 24.828 1.98551C25.8447 3.42008 26.4289 5.1667 26.4289 7.04165C26.4289 8.83825 25.893 10.5133 24.9529 11.9033C24.8562 12.0465 24.9421 12.2396 25.1127 12.2693C25.3491 12.3112 25.5908 12.3328 25.838 12.3396C28.3025 12.4044 30.5146 10.8091 31.1257 8.40598Z" fill="#EF89EC"/>
<path d="M10.061 1.74664C9.7185 1.6764 9.36526 1.63723 8.99725 1.63723C5.61265 1.63723 2.95466 4.84004 3.8626 8.40622C4.47236 10.8093 6.68444 12.4047 9.14902 12.3398C9.39615 12.3331 9.63925 12.3101 9.87429 12.2696C10.0449 12.2399 10.1308 12.0467 10.0341 11.9035C9.09396 10.5122 8.55806 8.83848 8.55806 7.04188C8.55806 5.16558 9.14365 3.41897 10.1604 1.98574C10.1926 1.94116 10.2168 1.87227 10.1845 1.82094C10.1577 1.77906 10.108 1.75745 10.061 1.74664Z" fill="#EF89EC"/>
</g>
<path d="M17.4129 16.3877C12.238 16.3877 7.87156 17.2333 7.87156 20.4969C7.87156 23.7618 12.2662 24.5777 17.4129 24.5777C22.5879 24.5777 26.9543 23.7321 26.9543 20.4685C26.9543 17.2036 22.5597 16.3877 17.4129 16.3877Z" fill="#EF89EC"/>
<path d="M33.7065 16.8028C33.2552 15.8356 32.166 15.1724 30.5099 14.8468C29.7282 14.655 27.6129 14.3848 25.6452 14.4213C25.6157 14.4254 25.5996 14.4456 25.5969 14.4591C25.5928 14.478 25.6009 14.5105 25.6398 14.5307C26.5491 14.9833 30.064 16.9514 29.6221 21.1025C29.6033 21.2822 29.747 21.4375 29.9257 21.4105C30.7906 21.2862 33.0161 20.8053 33.7065 19.3072C34.0879 18.5157 34.0879 17.5957 33.7065 16.8028Z" fill="#EF89EC"/>
<path d="M4.4745 14.8469C2.81846 15.1724 1.73055 15.8357 1.27927 16.8029C0.896493 17.5958 0.896493 18.5157 1.27927 19.3087C1.96963 20.8054 4.19514 21.2876 5.06009 21.4105C5.23872 21.4376 5.38109 21.2836 5.36229 21.1026C4.92041 16.9528 8.43529 14.9847 9.34591 14.5321C9.38352 14.5105 9.39157 14.4795 9.38755 14.4592C9.38486 14.4457 9.37008 14.4254 9.34054 14.4227C7.37156 14.3849 5.25752 14.6551 4.4745 14.8469Z" fill="#EF89EC"/>
</svg>
