<svg width="28" height="26" viewBox="0 0 28 26" fill="none" xmlns="http://www.w3.org/2000/svg">
<path opacity="0.4" d="M22.04 22.3708C21.653 22.7424 21.0418 22.7424 20.6548 22.3708L18.0947 19.9126C17.6848 19.519 17.6848 18.8635 18.0947 18.4699L18.2456 18.325C18.6326 17.9534 19.2439 17.9534 19.6309 18.325L20.6435 19.2973C21.0305 19.6689 21.6417 19.6689 22.0287 19.2973L25.444 16.0179C25.829 15.6482 26.4365 15.646 26.8242 16.013L26.9876 16.1677C27.4022 16.5603 27.4045 17.2198 26.9927 17.6152L22.04 22.3708Z" fill="#00FFFF"/>
<path d="M13.2131 19.5C13.2131 14.469 17.3488 10.4 22.4623 10.4C23.8893 10.4 25.2238 10.725 26.4262 11.284V2.6C26.4262 1.17 25.237 0 23.7836 0H2.64263C1.18918 0 0 1.17 0 2.6V26L5.28524 20.8H13.2131C13.2131 20.579 13.2263 20.371 13.2527 20.15C13.2263 19.942 13.2131 19.721 13.2131 19.5Z" fill="#00FFFF"/>
</svg>
