<svg width="25" height="24" viewBox="0 0 25 24" fill="none" xmlns="http://www.w3.org/2000/svg">
<path d="M9.15217 16.625C13.6545 16.625 17.3043 13.1272 17.3043 8.8125C17.3043 4.49777 13.6545 1 9.15217 1C4.64985 1 1 4.49777 1 8.8125C1 13.1272 4.64985 16.625 9.15217 16.625Z" stroke="#FFA51E" stroke-width="2" stroke-linecap="round" stroke-linejoin="round"/>
<path d="M3.71739 8.81251C3.71739 7.43117 4.28998 6.10641 5.30921 5.12966C6.32842 4.1529 7.71078 3.60417 9.15217 3.60417" stroke="#FC7752" stroke-linecap="round" stroke-linejoin="round"/>
<path d="M17.8375 17.1202L17.8298 17.1275C17.2652 17.6685 17.2652 18.5457 17.8298 19.0867L21.2577 22.3718C21.8223 22.9129 22.7376 22.9129 23.3022 22.3718L23.3099 22.3645C23.8745 21.8235 23.8745 20.9463 23.3099 20.4053L19.882 17.1202C19.3174 16.5791 18.4021 16.5791 17.8375 17.1202Z" stroke="#EE582B" stroke-width="2" stroke-linejoin="round"/>
<path d="M17.8262 17.1245L14.924 14.3433" stroke="#EE582B" stroke-linecap="round" stroke-linejoin="round"/>
</svg>
