<svg width="23" height="25" viewBox="0 0 23 25" fill="none" xmlns="http://www.w3.org/2000/svg">
<path opacity="0.4" d="M3.33179 20.7999L17.6218 24.6083C17.8631 24.6733 18.0941 24.6999 18.3353 24.6999C19.7253 24.6999 20.9883 23.6472 21.3329 22.0872L21.6201 20.7999H3.33179Z" fill="#EE582B"/>
<path d="M2.29754 0C1.02815 0 0 1.1635 0 2.6V5.39297C0 5.93377 0.273192 6.46173 0.726959 6.63203C1.64023 6.97523 2.29754 7.9508 2.29754 9.1C2.29754 10.2492 1.64023 11.2248 0.726959 11.568C0.273192 11.7383 0 12.2663 0 12.8071V15.6C0 17.0365 1.02815 18.2 2.29754 18.2H20.6778C21.9472 18.2 22.9754 17.0365 22.9754 15.6V12.8071C22.9754 12.2663 22.7022 11.7383 22.2484 11.568C21.3351 11.2248 20.6778 10.2492 20.6778 9.1C20.6778 7.9508 21.3351 6.97523 22.2484 6.63203C22.7022 6.46173 22.9754 5.93377 22.9754 5.39297V2.6C22.9754 1.1635 21.9472 0 20.6778 0H2.29754Z" fill="#EE582B"/>
</svg>
