<svg width="25" height="24" viewBox="0 0 25 24" fill="none" xmlns="http://www.w3.org/2000/svg">
<path d="M9.94 4.23763C9.94 2.44953 8.60201 1 6.95146 1C5.30092 1 3.96289 2.44953 3.96289 4.23763M24.2175 18.0978C24.2175 20.975 22.0645 23.3074 19.4087 23.3074C16.7528 23.3074 14.5998 20.975 14.5998 18.0978H24.2175ZM24.2175 18.0978C24.2175 15.2206 22.0645 12.8882 19.4087 12.8882C16.7528 12.8882 14.5998 15.2206 14.5998 18.0978H24.2175ZM24.2175 18.0978L22.6371 11.1677L21.0567 4.23763L24.2175 18.0978ZM14.5998 18.0978L15.0796 4.23763L14.5998 18.0978ZM14.5998 18.0978C12.7696 20.2111 11.1825 18.9783 10.6177 18.0978H14.5998ZM21.0567 4.23763C21.0567 6.02571 19.7187 7.47524 18.0682 7.47524C16.4176 7.47524 15.0796 6.02571 15.0796 4.23763H21.0567ZM21.0567 4.23763C21.0567 2.44953 19.7187 1 18.0682 1C16.4176 1 15.0796 2.44953 15.0796 4.23763H21.0567ZM15.0796 4.23763C13.0089 6.60147 10.7905 5.22256 9.94 4.23763H15.0796ZM10.6177 18.0978C10.6177 20.975 8.46472 23.3074 5.80886 23.3074C3.153 23.3074 1 20.975 1 18.0978H10.6177ZM10.6177 18.0978C10.6177 15.2206 8.46472 12.8882 5.80886 12.8882C3.153 12.8882 1 15.2206 1 18.0978H10.6177ZM10.6177 18.0978L9.94 4.23763L10.6177 18.0978ZM1 18.0978L3.96289 4.23763L1 18.0978ZM9.94 4.23763C9.94 6.02571 8.60201 7.47524 6.95146 7.47524C5.30092 7.47524 3.96289 6.02571 3.96289 4.23763H9.94Z" stroke="#FFA51E" stroke-width="1.28685" stroke-linejoin="round"/>
<path d="M3.16441 18.5591C3.16441 16.5864 4.64057 14.9873 6.46151 14.9873" stroke="#EE582B" stroke-width="0.621623" stroke-linecap="round"/>
<path d="M16.4268 18.5591C16.4268 16.5864 17.9031 14.9873 19.7239 14.9873" stroke="#EE582B" stroke-width="0.621623" stroke-linecap="round"/>
</svg>
