<svg width="64" height="64" viewBox="0 0 64 64" fill="none" xmlns="http://www.w3.org/2000/svg">
<path d="M32.1722 49.4029C36.6136 49.4029 40.4777 47.9102 43.7647 44.9249C44.3419 44.3953 44.6465 43.7373 44.6786 42.9508C44.7107 42.1644 44.4621 41.4823 43.933 40.9045C43.4039 40.3106 42.7465 39.9976 41.9609 39.9655C41.1752 39.9334 40.4938 40.1822 39.9166 40.7119C37.736 42.702 35.1545 43.6971 32.1722 43.6971C29.0136 43.6971 26.3119 42.5736 24.0671 40.3267C21.8224 38.0797 20.7 35.3753 20.7 32.2135C20.7 29.0356 21.8224 26.3232 24.0671 24.0762C26.3119 21.8292 29.0136 20.7057 32.1722 20.7057C34.7857 20.7057 37.1187 21.5002 39.171 23.0891C39.7963 23.5546 40.5018 23.7391 41.2874 23.6428C42.0571 23.5465 42.6824 23.1854 43.1634 22.5595C43.6444 21.9335 43.8368 21.2273 43.7406 20.4409C43.6284 19.6705 43.2676 19.0446 42.6583 18.5631C39.5638 16.1877 36.0684 15 32.1722 15C27.4422 15 23.3937 16.6852 20.0266 20.0557C16.6755 23.4101 15 27.4627 15 32.2135C15 36.9482 16.6755 41.0008 20.0266 44.3712C23.3937 47.7256 27.4422 49.4029 32.1722 49.4029Z" fill="white"/>
<path d="M35.3524 38.21L34.9552 38.9484H38.2841L38.4165 38.7023L41.1213 33.7986L39.4568 30.8071L35.3524 38.21ZM49.0085 38.21L43.7125 28.6488L42.6155 26.6797L42.502 26.4146H41.8589L41.7265 26.6797L40.6484 28.6488L40.516 28.8949L42.1805 31.9053L42.2183 31.981L45.9444 38.7023L46.0768 38.9484H49.4057L49.0085 38.21Z" fill="white"/>
<rect x="1" y="1" width="62" height="62" rx="11" stroke="url(#paint0_linear_101_3)" stroke-width="2"/>
<defs>
<linearGradient id="paint0_linear_101_3" x1="0" y1="0" x2="72.3305" y2="11.4707" gradientUnits="userSpaceOnUse">
<stop stop-color="#015AFF"/>
<stop offset="0.510417" stop-color="#D817F8"/>
<stop offset="1" stop-color="#FFA51E"/>
</linearGradient>
</defs>
</svg>
