<svg width="25" height="26" viewBox="0 0 25 26" fill="none" xmlns="http://www.w3.org/2000/svg">
<path d="M5.40043 16.167C5.40043 17.5827 4.2439 18.7393 2.82815 18.7393C1.41239 18.7393 0.255859 17.5827 0.255859 16.167C0.255859 14.7512 1.41239 13.5947 2.82815 13.5947H5.40043V16.167Z" fill="white"/>
<path d="M6.69655 16.167C6.69655 14.7512 7.85308 13.5947 9.26884 13.5947C10.6846 13.5947 11.8411 14.7512 11.8411 16.167V22.6077C11.8411 24.0234 10.6846 25.1799 9.26884 25.1799C7.85308 25.1799 6.69655 24.0234 6.69655 22.6077V16.167Z" fill="white"/>
<path d="M9.26884 5.83793C7.85308 5.83793 6.69655 4.6814 6.69655 3.26565C6.69655 1.84989 7.85308 0.693359 9.26884 0.693359C10.6846 0.693359 11.8411 1.84989 11.8411 3.26565V5.83793H9.26884Z" fill="white"/>
<path d="M9.26884 7.13405C10.6846 7.13405 11.8411 8.29058 11.8411 9.70634C11.8411 11.1221 10.6846 12.2786 9.26884 12.2786H2.82815C1.41239 12.2786 0.255859 11.1221 0.255859 9.70634C0.255859 8.29058 1.41239 7.13405 2.82815 7.13405H9.26884Z" fill="white"/>
<path d="M19.5979 9.70634C19.5979 8.29058 20.7544 7.13405 22.1702 7.13405C23.5859 7.13405 24.7424 8.29058 24.7424 9.70634C24.7424 11.1221 23.5859 12.2786 22.1702 12.2786H19.5979V9.70634Z" fill="white"/>
<path d="M18.3018 9.70634C18.3018 11.1221 17.1452 12.2786 15.7295 12.2786C14.3137 12.2786 13.1572 11.1221 13.1572 9.70634V3.26565C13.1572 1.84989 14.3137 0.693359 15.7295 0.693359C17.1452 0.693359 18.3018 1.84989 18.3018 3.26565V9.70634Z" fill="white"/>
<path d="M15.7295 20.0354C17.1452 20.0354 18.3018 21.1919 18.3018 22.6077C18.3018 24.0234 17.1452 25.1799 15.7295 25.1799C14.3137 25.1799 13.1572 24.0234 13.1572 22.6077V20.0354H15.7295Z" fill="white"/>
<path d="M15.7295 18.7393C14.3137 18.7393 13.1572 17.5827 13.1572 16.167C13.1572 14.7512 14.3137 13.5947 15.7295 13.5947H22.1702C23.5859 13.5947 24.7424 14.7512 24.7424 16.167C24.7424 17.5827 23.5859 18.7393 22.1702 18.7393H15.7295Z" fill="white"/>
</svg>
