<svg width="47" height="47" viewBox="0 0 47 47" fill="none" xmlns="http://www.w3.org/2000/svg">
<path d="M10.4086 29.1211C10.4086 31.7807 8.236 33.9534 5.57639 33.9534C2.91678 33.9534 0.744141 31.7807 0.744141 29.1211C0.744141 26.4615 2.91678 24.2889 5.57639 24.2889H10.4086V29.1211Z" fill="white"/>
<path d="M12.8435 29.1211C12.8435 26.4615 15.0161 24.2889 17.6757 24.2889C20.3353 24.2889 22.508 26.4615 22.508 29.1211V41.2205C22.508 43.8801 20.3353 46.0527 17.6757 46.0527C15.0161 46.0527 12.8435 43.8801 12.8435 41.2205V29.1211Z" fill="white"/>
<path d="M17.6757 9.71723C15.0161 9.71723 12.8435 7.54459 12.8435 4.88498C12.8435 2.22537 15.0161 0.0527344 17.6757 0.0527344C20.3353 0.0527344 22.508 2.22537 22.508 4.88498V9.71723H17.6757Z" fill="white"/>
<path d="M17.6757 12.1521C20.3353 12.1521 22.508 14.3247 22.508 16.9843C22.508 19.6439 20.3353 21.8166 17.6757 21.8166H5.57639C2.91678 21.8166 0.744141 19.6439 0.744141 16.9843C0.744141 14.3247 2.91678 12.1521 5.57639 12.1521H17.6757Z" fill="white"/>
<path d="M37.0797 16.9843C37.0797 14.3247 39.2523 12.1521 41.9119 12.1521C44.5715 12.1521 46.7441 14.3247 46.7441 16.9843C46.7441 19.6439 44.5715 21.8166 41.9119 21.8166H37.0797V16.9843Z" fill="white"/>
<path d="M34.6448 16.9843C34.6448 19.6439 32.4722 21.8166 29.8125 21.8166C27.1529 21.8166 24.9803 19.6439 24.9803 16.9843V4.88498C24.9803 2.22537 27.1529 0.0527344 29.8125 0.0527344C32.4722 0.0527344 34.6448 2.22537 34.6448 4.88498V16.9843Z" fill="white"/>
<path d="M29.8125 36.3882C32.4722 36.3882 34.6448 38.5609 34.6448 41.2205C34.6448 43.8801 32.4722 46.0527 29.8125 46.0527C27.1529 46.0527 24.9803 43.8801 24.9803 41.2205V36.3882H29.8125Z" fill="white"/>
<path d="M29.8125 33.9534C27.1529 33.9534 24.9803 31.7807 24.9803 29.1211C24.9803 26.4615 27.1529 24.2889 29.8125 24.2889H41.9119C44.5715 24.2889 46.7441 26.4615 46.7441 29.1211C46.7441 31.7807 44.5715 33.9534 41.9119 33.9534H29.8125Z" fill="white"/>
</svg>
