<svg width="16" height="32" viewBox="0 0 16 32" fill="none" xmlns="http://www.w3.org/2000/svg">
<path d="M7.99984 3.33341C5.41984 3.33341 3.33317 5.42008 3.33317 8.00008H4.6665C4.6665 6.16008 6.15984 4.66675 7.99984 4.66675C9.83984 4.66675 11.3332 6.16008 11.3332 8.00008H12.6665C12.6665 5.42008 10.5798 3.33341 7.99984 3.33341ZM8.6665 9.52675C9.25317 9.26675 9.6665 8.68675 9.6665 8.00008C9.6665 7.08008 8.91984 6.33341 7.99984 6.33341C7.07984 6.33341 6.33317 7.08008 6.33317 8.00008C6.33317 8.68008 6.7465 9.26675 7.33317 9.52675V11.7267L5.05984 14.0001L5.99984 14.9401L7.99984 12.9401L9.99984 14.9401L10.9398 14.0001L8.6665 11.7267V9.52675ZM7.99984 0.666748C3.95317 0.666748 0.666504 3.95341 0.666504 8.00008H1.99984C1.99984 4.68675 4.6865 2.00008 7.99984 2.00008C11.3132 2.00008 13.9998 4.68675 13.9998 8.00008H15.3332C15.3332 3.95341 12.0465 0.666748 7.99984 0.666748Z" fill="#ffa41c"/>
<path d="M3.33317 17.3334C3.33317 16.9667 3.03317 16.6667 2.6665 16.6667C2.29984 16.6667 1.99984 16.9667 1.99984 17.3334V20.0001H0.666504V24.0001H4.6665V20.0001H3.33317V17.3334ZM5.99984 26.6667C5.99984 27.5334 6.55984 28.2667 7.33317 28.5467V31.3334H8.6665V28.5467C9.43984 28.2734 9.99984 27.5401 9.99984 26.6667V25.3334H5.99984V26.6667ZM0.666504 26.6667C0.666504 27.5334 1.2265 28.2667 1.99984 28.5467V31.3334H3.33317V28.5467C4.1065 28.2667 4.6665 27.5334 4.6665 26.6667V25.3334H0.666504V26.6667ZM13.9998 20.0001V17.3334C13.9998 16.9667 13.6998 16.6667 13.3332 16.6667C12.9665 16.6667 12.6665 16.9667 12.6665 17.3334V20.0001H11.3332V24.0001H15.3332V20.0001H13.9998ZM8.6665 17.3334C8.6665 16.9667 8.3665 16.6667 7.99984 16.6667C7.63317 16.6667 7.33317 16.9667 7.33317 17.3334V20.0001H5.99984V24.0001H9.99984V20.0001H8.6665V17.3334ZM11.3332 26.6667C11.3332 27.5334 11.8932 28.2667 12.6665 28.5467V31.3334H13.9998V28.5467C14.7732 28.2734 15.3332 27.5401 15.3332 26.6667V25.3334H11.3332V26.6667Z" fill="#ffa41c"/>
</svg>
