<svg width="33" height="32" viewBox="0 0 33 32" fill="none" xmlns="http://www.w3.org/2000/svg">
<path d="M22.5242 20C22.5242 23.2 18.4587 25.6 18.4587 28H15.2062C15.2062 25.6 11.1406 23.2 11.1406 20C11.1406 16.912 13.6938 14.4 16.8324 14.4C19.9711 14.4 22.5242 16.912 22.5242 20ZM18.4587 29.6H15.2062V32H18.4587V29.6Z" fill="#FFA51E"/>
<path opacity="0.4" d="M28.2164 19.2C28.2164 21.888 27.257 24.336 25.647 26.272L27.9563 28.544C30.1354 26.032 31.4689 22.768 31.4689 19.2C31.4689 14.816 29.4686 10.896 26.33 8.256L24.0208 10.528C26.574 12.576 28.2164 15.712 28.2164 19.2ZM23.3378 6.4L16.8328 0V4.8C8.75048 4.8 2.19678 11.248 2.19678 19.2C2.19678 22.768 3.53029 26.032 5.70943 28.544L8.01868 26.272C6.40871 24.336 5.44924 21.888 5.44924 19.2C5.44924 13.024 10.5556 8 16.8328 8V12.8L23.3378 6.4Z" fill="#FFA51E"/>
</svg>
