<svg width="50" height="50" viewBox="0 0 50 50" fill="none" xmlns="http://www.w3.org/2000/svg">
<path d="M45.8333 5H41.6667V3.33333C41.6667 2.44928 41.3155 1.60143 40.6903 0.976311C40.0652 0.351189 39.2174 0 38.3333 0C37.4493 0 36.6014 0.351189 35.9763 0.976311C35.3512 1.60143 35 2.44928 35 3.33333V5H28.3333V3.33333C28.3333 2.44928 27.9821 1.60143 27.357 0.976311C26.7319 0.351189 25.8841 0 25 0C24.1159 0 23.2681 0.351189 22.643 0.976311C22.0179 1.60143 21.6667 2.44928 21.6667 3.33333V5H15V3.33333C15 2.44928 14.6488 1.60143 14.0237 0.976311C13.3986 0.351189 12.5507 0 11.6667 0C10.7826 0 9.93476 0.351189 9.30964 0.976311C8.68452 1.60143 8.33333 2.44928 8.33333 3.33333V5H4.16667C3.0616 5 2.00179 5.43899 1.22039 6.22039C0.438987 7.00179 0 8.0616 0 9.16667V42.5C0 43.6051 0.438987 44.6649 1.22039 45.4463C2.00179 46.2277 3.0616 46.6667 4.16667 46.6667H27.5C27.721 46.6667 27.933 46.5789 28.0893 46.4226C28.2455 46.2663 28.3333 46.0543 28.3333 45.8333C28.3333 45.6123 28.2455 45.4003 28.0893 45.2441C27.933 45.0878 27.721 45 27.5 45H4.16667C3.50423 44.998 2.8695 44.734 2.40108 44.2656C1.93267 43.7972 1.66864 43.1624 1.66667 42.5V16.6667H48.3333V30.8333C48.3333 31.0543 48.4211 31.2663 48.5774 31.4226C48.7337 31.5789 48.9456 31.6667 49.1667 31.6667C49.3877 31.6667 49.5996 31.5789 49.7559 31.4226C49.9122 31.2663 50 31.0543 50 30.8333V9.16667C50 8.0616 49.561 7.00179 48.7796 6.22039C47.9982 5.43899 46.9384 5 45.8333 5ZM36.6667 3.33333C36.6667 2.89131 36.8423 2.46738 37.1548 2.15482C37.4674 1.84226 37.8913 1.66667 38.3333 1.66667C38.7754 1.66667 39.1993 1.84226 39.5118 2.15482C39.8244 2.46738 40 2.89131 40 3.33333V8.33333C40 8.77536 39.8244 9.19928 39.5118 9.51184C39.1993 9.8244 38.7754 10 38.3333 10C37.8913 10 37.4674 9.8244 37.1548 9.51184C36.8423 9.19928 36.6667 8.77536 36.6667 8.33333V3.33333ZM23.3333 3.33333C23.3333 2.89131 23.5089 2.46738 23.8215 2.15482C24.134 1.84226 24.558 1.66667 25 1.66667C25.442 1.66667 25.8659 1.84226 26.1785 2.15482C26.4911 2.46738 26.6667 2.89131 26.6667 3.33333V8.33333C26.6667 8.77536 26.4911 9.19928 26.1785 9.51184C25.8659 9.8244 25.442 10 25 10C24.558 10 24.134 9.8244 23.8215 9.51184C23.5089 9.19928 23.3333 8.77536 23.3333 8.33333V3.33333ZM10 3.33333C10 2.89131 10.1756 2.46738 10.4882 2.15482C10.8007 1.84226 11.2246 1.66667 11.6667 1.66667C12.1087 1.66667 12.5326 1.84226 12.8452 2.15482C13.1577 2.46738 13.3333 2.89131 13.3333 3.33333V8.33333C13.3333 8.77536 13.1577 9.19928 12.8452 9.51184C12.5326 9.8244 12.1087 10 11.6667 10C11.2246 10 10.8007 9.8244 10.4882 9.51184C10.1756 9.19928 10 8.77536 10 8.33333V3.33333ZM48.3333 15H1.66667V9.16667C1.66864 8.50423 1.93267 7.8695 2.40108 7.40108C2.8695 6.93267 3.50423 6.66864 4.16667 6.66667H8.33333V8.33333C8.33333 9.21739 8.68452 10.0652 9.30964 10.6904C9.93476 11.3155 10.7826 11.6667 11.6667 11.6667C12.5507 11.6667 13.3986 11.3155 14.0237 10.6904C14.6488 10.0652 15 9.21739 15 8.33333V6.66667H21.6667V8.33333C21.6667 9.21739 22.0179 10.0652 22.643 10.6904C23.2681 11.3155 24.1159 11.6667 25 11.6667C25.8841 11.6667 26.7319 11.3155 27.357 10.6904C27.9821 10.0652 28.3333 9.21739 28.3333 8.33333V6.66667H35V8.33333C35 9.21739 35.3512 10.0652 35.9763 10.6904C36.6014 11.3155 37.4493 11.6667 38.3333 11.6667C39.2174 11.6667 40.0652 11.3155 40.6903 10.6904C41.3155 10.0652 41.6667 9.21739 41.6667 8.33333V6.66667H45.8333C46.4958 6.66864 47.1305 6.93267 47.5989 7.40108C48.0673 7.8695 48.3313 8.50423 48.3333 9.16667V15Z" fill="white"/>
<path d="M23.3333 22.4999C23.3333 22.0579 23.1577 21.634 22.8451 21.3214C22.5326 21.0088 22.1087 20.8333 21.6666 20.8333H18.3333C17.8913 20.8333 17.4673 21.0088 17.1548 21.3214C16.8422 21.634 16.6666 22.0579 16.6666 22.4999V24.9999C16.6666 25.4419 16.8422 25.8659 17.1548 26.1784C17.4673 26.491 17.8913 26.6666 18.3333 26.6666H21.6666C22.1087 26.6666 22.5326 26.491 22.8451 26.1784C23.1577 25.8659 23.3333 25.4419 23.3333 24.9999V22.4999ZM18.3333 24.9999V22.4999H21.6666V24.9999H18.3333Z" fill="white"/>
<path d="M13.3333 22.4999C13.3333 22.0579 13.1577 21.634 12.8451 21.3214C12.5326 21.0088 12.1087 20.8333 11.6666 20.8333H8.33329C7.89127 20.8333 7.46734 21.0088 7.15478 21.3214C6.84222 21.634 6.66663 22.0579 6.66663 22.4999V24.9999C6.66663 25.4419 6.84222 25.8659 7.15478 26.1784C7.46734 26.491 7.89127 26.6666 8.33329 26.6666H11.6666C12.1087 26.6666 12.5326 26.491 12.8451 26.1784C13.1577 25.8659 13.3333 25.4419 13.3333 24.9999V22.4999ZM8.33329 24.9999V22.4999H11.6666V24.9999H8.33329Z" fill="white"/>
<path d="M41.6666 26.6666C42.1087 26.6666 42.5326 26.491 42.8451 26.1784C43.1577 25.8659 43.3333 25.4419 43.3333 24.9999V22.4999C43.3333 22.0579 43.1577 21.634 42.8451 21.3214C42.5326 21.0088 42.1087 20.8333 41.6666 20.8333H38.3333C37.8913 20.8333 37.4673 21.0088 37.1548 21.3214C36.8422 21.634 36.6666 22.0579 36.6666 22.4999V24.9999C36.6666 25.4419 36.8422 25.8659 37.1548 26.1784C37.4673 26.491 37.8913 26.6666 38.3333 26.6666H41.6666ZM38.3333 22.4999H41.6666V24.9999H38.3333V22.4999Z" fill="white"/>
<path d="M23.3333 29.9999C23.3333 29.5579 23.1577 29.134 22.8451 28.8214C22.5326 28.5088 22.1087 28.3333 21.6666 28.3333H18.3333C17.8913 28.3333 17.4673 28.5088 17.1548 28.8214C16.8422 29.134 16.6666 29.5579 16.6666 29.9999V32.4999C16.6666 32.9419 16.8422 33.3659 17.1548 33.6784C17.4673 33.991 17.8913 34.1666 18.3333 34.1666H21.6666C22.1087 34.1666 22.5326 33.991 22.8451 33.6784C23.1577 33.3659 23.3333 32.9419 23.3333 32.4999V29.9999ZM18.3333 32.4999V29.9999H21.6666V32.4999H18.3333Z" fill="white"/>
<path d="M13.3333 29.9999C13.3333 29.5579 13.1577 29.134 12.8451 28.8214C12.5326 28.5088 12.1087 28.3333 11.6666 28.3333H8.33329C7.89127 28.3333 7.46734 28.5088 7.15478 28.8214C6.84222 29.134 6.66663 29.5579 6.66663 29.9999V32.4999C6.66663 32.9419 6.84222 33.3659 7.15478 33.6784C7.46734 33.991 7.89127 34.1666 8.33329 34.1666H11.6666C12.1087 34.1666 12.5326 33.991 12.8451 33.6784C13.1577 33.3659 13.3333 32.9419 13.3333 32.4999V29.9999ZM8.33329 32.4999V29.9999H11.6666V32.4999H8.33329Z" fill="white"/>
<path d="M21.6666 35.8333H18.3333C17.8913 35.8333 17.4673 36.0088 17.1548 36.3214C16.8422 36.634 16.6666 37.0579 16.6666 37.4999V39.9999C16.6666 40.4419 16.8422 40.8659 17.1548 41.1784C17.4673 41.491 17.8913 41.6666 18.3333 41.6666H21.6666C22.1087 41.6666 22.5326 41.491 22.8451 41.1784C23.1577 40.8659 23.3333 40.4419 23.3333 39.9999V37.4999C23.3333 37.0579 23.1577 36.634 22.8451 36.3214C22.5326 36.0088 22.1087 35.8333 21.6666 35.8333ZM18.3333 39.9999V37.4999H21.6666V39.9999H18.3333Z" fill="white"/>
<path d="M28.3333 26.6666H31.6666C32.1086 26.6666 32.5326 26.491 32.8451 26.1784C33.1577 25.8659 33.3333 25.4419 33.3333 24.9999V22.4999C33.3333 22.0579 33.1577 21.634 32.8451 21.3214C32.5326 21.0088 32.1086 20.8333 31.6666 20.8333H28.3333C27.8913 20.8333 27.4673 21.0088 27.1548 21.3214C26.8422 21.634 26.6666 22.0579 26.6666 22.4999V24.9999C26.6666 25.4419 26.8422 25.8659 27.1548 26.1784C27.4673 26.491 27.8913 26.6666 28.3333 26.6666ZM28.3333 22.4999H31.6666V24.9999H28.3333V22.4999Z" fill="white"/>
<path d="M26.6666 32.4999C26.6666 32.9419 26.8422 33.3659 27.1548 33.6784C27.4673 33.991 27.8913 34.1666 28.3333 34.1666C28.5543 34.1666 28.7663 34.0788 28.9225 33.9225C29.0788 33.7662 29.1666 33.5543 29.1666 33.3332C29.1666 33.1122 29.0788 32.9003 28.9225 32.744C28.7663 32.5877 28.5543 32.4999 28.3333 32.4999V29.9999H31.6666C31.8876 29.9999 32.0996 29.9121 32.2559 29.7558C32.4122 29.5996 32.5 29.3876 32.5 29.1666C32.5 28.9456 32.4122 28.7336 32.2559 28.5773C32.0996 28.421 31.8876 28.3333 31.6666 28.3333H28.3333C27.8913 28.3333 27.4673 28.5088 27.1548 28.8214C26.8422 29.134 26.6666 29.5579 26.6666 29.9999V32.4999Z" fill="white"/>
<path d="M11.6666 35.8333H8.33329C7.89127 35.8333 7.46734 36.0088 7.15478 36.3214C6.84222 36.634 6.66663 37.0579 6.66663 37.4999V39.9999C6.66663 40.4419 6.84222 40.8659 7.15478 41.1784C7.46734 41.491 7.89127 41.6666 8.33329 41.6666H11.6666C12.1087 41.6666 12.5326 41.491 12.8451 41.1784C13.1577 40.8659 13.3333 40.4419 13.3333 39.9999V37.4999C13.3333 37.0579 13.1577 36.634 12.8451 36.3214C12.5326 36.0088 12.1087 35.8333 11.6666 35.8333ZM8.33329 39.9999V37.4999H11.6666V39.9999H8.33329Z" fill="white"/>
<path d="M39.1667 28.3333C37.0241 28.3333 34.9296 28.9686 33.148 30.159C31.3665 31.3494 29.978 33.0413 29.158 35.0208C28.3381 37.0004 28.1235 39.1786 28.5415 41.2801C28.9595 43.3815 29.9913 45.3118 31.5064 46.8269C33.0215 48.342 34.9518 49.3738 37.0532 49.7918C39.1547 50.2098 41.3329 49.9952 43.3124 49.1753C45.292 48.3553 46.9839 46.9668 48.1743 45.1853C49.3647 43.4037 50 41.3092 50 39.1666C49.9967 36.2944 48.8543 33.5408 46.8234 31.5099C44.7925 29.479 42.0389 28.3366 39.1667 28.3333ZM39.1667 48.3333C37.3537 48.3333 35.5814 47.7956 34.074 46.7884C32.5665 45.7811 31.3916 44.3495 30.6978 42.6745C30.004 40.9995 29.8225 39.1564 30.1762 37.3783C30.5299 35.6001 31.4029 33.9668 32.6849 32.6848C33.9669 31.4028 35.6002 30.5298 37.3784 30.1761C39.1565 29.8224 40.9997 30.0039 42.6746 30.6977C44.3496 31.3915 45.7813 32.5664 46.7885 34.0739C47.7958 35.5813 48.3334 37.3536 48.3334 39.1666C48.3305 41.5969 47.3638 43.9268 45.6454 45.6452C43.9269 47.3637 41.597 48.3304 39.1667 48.3333Z" fill="white"/>
<path d="M43.9816 35.6733L37.4999 42.1549L34.5541 39.2083C34.3969 39.0565 34.1864 38.9725 33.9679 38.9744C33.7494 38.9763 33.5404 39.0639 33.3859 39.2184C33.2314 39.3729 33.1438 39.5819 33.1419 39.8004C33.14 40.0189 33.224 40.2294 33.3758 40.3866L36.9108 43.9224C37.067 44.0786 37.279 44.1664 37.4999 44.1664C37.7209 44.1664 37.9328 44.0786 38.0891 43.9224L45.1599 36.8516C45.3117 36.6944 45.3957 36.4839 45.3938 36.2654C45.3919 36.0469 45.3043 35.8379 45.1498 35.6834C44.9953 35.5289 44.7863 35.4413 44.5678 35.4394C44.3493 35.4375 44.1388 35.5215 43.9816 35.6733Z" fill="white"/>
</svg>
