<svg width="33" height="34" viewBox="0 0 33 34" fill="none" xmlns="http://www.w3.org/2000/svg">
<path d="M28.1794 22.5164C28.1794 25.2785 25.9403 27.5176 23.1782 27.5176C20.4161 27.5176 18.177 25.2785 18.177 22.5164M28.1794 22.5164C28.1794 19.7543 25.9403 17.5152 23.1782 17.5152C20.4161 17.5152 18.177 19.7543 18.177 22.5164M28.1794 22.5164L26.5358 15.8635L24.8922 9.21066M18.177 22.5164L18.676 9.21066M18.177 22.5164C16.2736 24.5452 14.623 23.3617 14.0356 22.5164M24.8922 9.21066C24.8922 10.9272 23.5006 12.3188 21.7841 12.3188C20.0675 12.3188 18.676 10.9272 18.676 9.21066M24.8922 9.21066C24.8922 7.49409 23.5006 6.10254 21.7841 6.10254C20.0675 6.10254 18.676 7.49409 18.676 9.21066M18.676 9.21066C16.5225 11.48 14.2153 10.1562 13.3308 9.21066M14.0356 22.5164C14.0356 25.2785 11.7965 27.5176 9.03442 27.5176C6.27232 27.5176 4.0332 25.2785 4.0332 22.5164M14.0356 22.5164C14.0356 19.7543 11.7965 17.5152 9.03442 17.5152C6.27232 17.5152 4.0332 19.7543 4.0332 22.5164M14.0356 22.5164L13.3308 9.21066M4.0332 22.5164L7.11461 9.21066M13.3308 9.21066C13.3308 10.9272 11.9393 12.3188 10.2227 12.3188C8.50616 12.3188 7.11461 10.9272 7.11461 9.21066M13.3308 9.21066C13.3308 7.49409 11.9393 6.10254 10.2227 6.10254C8.50616 6.10254 7.11461 7.49409 7.11461 9.21066" stroke="#FFA51E" stroke-width="1.28685" stroke-linejoin="round"/>
<path d="M6.28369 22.9593C6.28369 21.0655 7.8189 19.5303 9.71268 19.5303" stroke="#EE582B" stroke-width="0.621623" stroke-linecap="round"/>
<path d="M20.0769 22.9593C20.0769 21.0655 21.6121 19.5303 23.5059 19.5303" stroke="#EE582B" stroke-width="0.621623" stroke-linecap="round"/>
</svg>
