<svg width="33" height="32" viewBox="0 0 33 32" fill="none" xmlns="http://www.w3.org/2000/svg">
<path opacity="0.4" d="M24.4007 25.3704C24.0137 25.742 23.4024 25.742 23.0154 25.3704L20.4553 22.9121C20.0454 22.5186 20.0454 21.8631 20.4553 21.4695L20.6063 21.3245C20.9933 20.953 21.6045 20.953 21.9915 21.3245L23.0041 22.2969C23.3911 22.6685 24.0024 22.6685 24.3893 22.2969L27.8047 19.0174C28.1897 18.6477 28.7972 18.6456 29.1848 19.0126L29.3482 19.1673C29.7628 19.5599 29.7652 20.2193 29.3533 20.6148L24.4007 25.3704Z" fill="#00FFFF"/>
<path d="M15.5737 22.5C15.5737 17.469 19.7094 13.4 24.8229 13.4C26.2499 13.4 27.5844 13.725 28.7868 14.284V5.6C28.7868 4.17 27.5976 3 26.1442 3H5.00322C3.54978 3 2.3606 4.17 2.3606 5.6V29L7.64584 23.8H15.5737C15.5737 23.579 15.5869 23.371 15.6133 23.15C15.5869 22.942 15.5737 22.721 15.5737 22.5Z" fill="#00FFFF"/>
</svg>
