<svg width="34" height="32" viewBox="0 0 34 32" fill="none" xmlns="http://www.w3.org/2000/svg">
<path d="M16.4208 19.8102C11.2458 19.8102 6.87939 20.6558 6.87939 23.9194C6.87939 27.1843 11.274 28.0002 16.4208 28.0002C21.5957 28.0002 25.9621 27.1546 25.9621 23.891C25.9621 20.6261 21.5675 19.8102 16.4208 19.8102Z" fill="#ef89ec"/>
<path opacity="0.4" d="M16.424 16.7006C19.9281 16.7006 22.7379 13.8747 22.7379 10.3504C22.7379 6.8247 19.9281 4.00012 16.424 4.00012C12.9199 4.00012 10.1101 6.8247 10.1101 10.3504C10.1101 13.8747 12.9199 16.7006 16.424 16.7006Z" fill="#ef89ec"/>
<path opacity="0.4" d="M30.1335 11.8289C31.0401 8.26275 28.3821 5.05994 24.9975 5.05994C24.6295 5.05994 24.2776 5.10046 23.9338 5.16935C23.8881 5.18016 23.8371 5.20312 23.8102 5.24365C23.7793 5.29498 23.8022 5.36387 23.8357 5.40845C24.8525 6.84303 25.4367 8.58965 25.4367 10.4646C25.4367 12.2612 24.9008 13.9362 23.9607 15.3262C23.864 15.4694 23.9499 15.6626 24.1205 15.6923C24.3569 15.7342 24.5986 15.7558 24.8458 15.7625C27.3103 15.8274 29.5224 14.232 30.1335 11.8289Z" fill="#ef89ec"/>
<path d="M32.7143 20.2253C32.263 19.2581 31.1738 18.5949 29.5177 18.2693C28.7361 18.0775 26.6207 17.8073 24.653 17.8438C24.6235 17.8478 24.6074 17.8681 24.6047 17.8816C24.6007 17.9005 24.6087 17.9329 24.6477 17.9532C25.5569 18.4057 29.0718 20.3739 28.63 24.525C28.6111 24.7046 28.7549 24.86 28.9335 24.833C29.7984 24.7087 32.024 24.2278 32.7143 22.7297C33.0957 21.9381 33.0957 21.0182 32.7143 20.2253Z" fill="#ef89ec"/>
<path opacity="0.4" d="M9.0688 5.1696C8.72631 5.09935 8.37307 5.06018 8.00506 5.06018C4.62046 5.06018 1.96247 8.26299 2.87041 11.8292C3.48017 14.2323 5.69225 15.8276 8.15684 15.7628C8.40396 15.756 8.64707 15.7331 8.88211 15.6925C9.05268 15.6628 9.13864 15.4696 9.04194 15.3265C8.10177 13.9351 7.56587 12.2614 7.56587 10.4648C7.56587 8.58854 8.15146 6.84192 9.16819 5.40869C9.20042 5.36412 9.2246 5.29522 9.19236 5.24389C9.1655 5.20202 9.11581 5.1804 9.0688 5.1696Z" fill="#ef89ec"/>
<path d="M3.48231 18.2693C1.82627 18.5948 0.738367 19.2581 0.287087 20.2253C-0.0956956 21.0182 -0.0956956 21.9381 0.287087 22.7311C0.977438 24.2278 3.20295 24.71 4.0679 24.833C4.24653 24.86 4.3889 24.706 4.3701 24.525C3.92822 20.3752 7.4431 18.4071 8.35372 17.9545C8.39133 17.9329 8.39939 17.9019 8.39536 17.8816C8.39267 17.8681 8.3779 17.8478 8.34835 17.8451C6.37937 17.8073 4.26534 18.0775 3.48231 18.2693Z" fill="#ef89ec"/>
</svg>
