<svg width="33" height="33" viewBox="0 0 33 33" fill="none" xmlns="http://www.w3.org/2000/svg">
<path d="M13.5332 21.1025C17.6753 21.1025 21.0332 17.7447 21.0332 13.6025C21.0332 9.4604 17.6753 6.10254 13.5332 6.10254C9.39107 6.10254 6.0332 9.4604 6.0332 13.6025C6.0332 17.7447 9.39107 21.1025 13.5332 21.1025Z" stroke="#FFA51E" stroke-width="2" stroke-linecap="round" stroke-linejoin="round"/>
<path d="M8.5332 13.6025C8.5332 12.2765 9.05999 11.0047 9.99767 10.067C10.9354 9.12932 12.2071 8.60254 13.5332 8.60254" stroke="#FC7752" stroke-linecap="round" stroke-linejoin="round"/>
<path d="M21.5237 21.5779L21.5166 21.5849C20.9972 22.1043 20.9972 22.9464 21.5166 23.4658L24.6703 26.6195C25.1897 27.1389 26.0318 27.1389 26.5512 26.6195L26.5583 26.6125C27.0777 26.0931 27.0777 25.251 26.5583 24.7316L23.4046 21.5779C22.8852 21.0585 22.0431 21.0585 21.5237 21.5779Z" stroke="#EE582B" stroke-width="2" stroke-linejoin="round"/>
<path d="M21.5133 21.5826L18.8433 18.9126" stroke="#EE582B" stroke-linecap="round" stroke-linejoin="round"/>
</svg>
