<svg width="25" height="25" viewBox="0 0 25 25" fill="none" xmlns="http://www.w3.org/2000/svg">
<path d="M24.6945 23.222L17.5852 16.1127C18.9623 14.4117 19.7915 12.2502 19.7915 9.89612C19.7915 4.43992 15.3519 0.000366211 9.8957 0.000366211C4.43951 0.000366211 0 4.43987 0 9.89607C0 15.3523 4.43956 19.7918 9.89575 19.7918C12.2499 19.7918 14.4113 18.9627 16.1123 17.5856L23.2216 24.6949C23.4248 24.898 23.6914 25.0001 23.9581 25.0001C24.2248 25.0001 24.4915 24.898 24.6946 24.6949C25.1019 24.2876 25.1019 23.6293 24.6945 23.222ZM9.89575 17.7085C5.58745 17.7085 2.08333 14.2044 2.08333 9.89607C2.08333 5.58776 5.58745 2.08365 9.89575 2.08365C14.2041 2.08365 17.7082 5.58776 17.7082 9.89607C17.7082 14.2044 14.204 17.7085 9.89575 17.7085Z" fill="white"/>
</svg>
