<svg width="46" height="46" viewBox="0 0 46 46" fill="none" xmlns="http://www.w3.org/2000/svg">
<path d="M9.6645 29.0679C9.6645 31.7275 7.49186 33.9002 4.83225 33.9002C2.17264 33.9002 0 31.7275 0 29.0679C0 26.4083 2.17264 24.2357 4.83225 24.2357H9.6645V29.0679Z" fill="white"/>
<path d="M12.0993 29.0679C12.0993 26.4083 14.272 24.2357 16.9316 24.2357C19.5912 24.2357 21.7638 26.4083 21.7638 29.0679V41.1673C21.7638 43.8269 19.5912 45.9995 16.9316 45.9995C14.272 45.9995 12.0993 43.8269 12.0993 41.1673V29.0679Z" fill="white"/>
<path d="M16.9316 9.66401C14.272 9.66401 12.0993 7.49137 12.0993 4.83176C12.0993 2.17215 14.272 -0.000488281 16.9316 -0.000488281C19.5912 -0.000488281 21.7638 2.17215 21.7638 4.83176V9.66401H16.9316Z" fill="white"/>
<path d="M16.9316 12.0989C19.5912 12.0989 21.7638 14.2715 21.7638 16.9311C21.7638 19.5907 19.5912 21.7634 16.9316 21.7634H4.83225C2.17264 21.7634 0 19.5907 0 16.9311C0 14.2715 2.17264 12.0989 4.83225 12.0989H16.9316Z" fill="white"/>
<path d="M36.3355 16.9311C36.3355 14.2715 38.5081 12.0989 41.1678 12.0989C43.8274 12.0989 46 14.2715 46 16.9311C46 19.5907 43.8274 21.7634 41.1678 21.7634H36.3355V16.9311Z" fill="white"/>
<path d="M33.9007 16.9311C33.9007 19.5907 31.728 21.7634 29.0684 21.7634C26.4088 21.7634 24.2362 19.5907 24.2362 16.9311V4.83176C24.2362 2.17215 26.4088 -0.000488281 29.0684 -0.000488281C31.728 -0.000488281 33.9007 2.17215 33.9007 4.83176V16.9311Z" fill="white"/>
<path d="M29.0684 36.335C31.728 36.335 33.9007 38.5077 33.9007 41.1673C33.9007 43.8269 31.728 45.9995 29.0684 45.9995C26.4088 45.9995 24.2362 43.8269 24.2362 41.1673V36.335H29.0684Z" fill="white"/>
<path d="M29.0684 33.9002C26.4088 33.9002 24.2362 31.7275 24.2362 29.0679C24.2362 26.4083 26.4088 24.2357 29.0684 24.2357H41.1678C43.8274 24.2357 46 26.4083 46 29.0679C46 31.7275 43.8274 33.9002 41.1678 33.9002H29.0684Z" fill="white"/>
</svg>
