<svg width="29" height="32" viewBox="0 0 29 32" fill="none" xmlns="http://www.w3.org/2000/svg">
<path opacity="0.4" d="M6.47461 26.8L20.7647 30.6086C21.0059 30.6736 21.2369 30.7 21.4782 30.7C22.8682 30.7 24.1311 29.6474 24.4757 28.0874L24.7629 26.8H6.47461Z" fill="#EE582B"/>
<path d="M5.44036 6C4.17097 6 3.14282 7.1635 3.14282 8.6V11.393C3.14282 11.9338 3.41601 12.4617 3.86978 12.632C4.78305 12.9752 5.44036 13.9508 5.44036 15.1C5.44036 16.2492 4.78305 17.2248 3.86978 17.568C3.41601 17.7383 3.14282 18.2662 3.14282 18.807V21.6C3.14282 23.0365 4.17097 24.2 5.44036 24.2H23.8207C25.0901 24.2 26.1182 23.0365 26.1182 21.6V18.807C26.1182 18.2662 25.845 17.7383 25.3912 17.568C24.478 17.2248 23.8207 16.2492 23.8207 15.1C23.8207 13.9508 24.478 12.9752 25.3912 12.632C25.845 12.4617 26.1182 11.9338 26.1182 11.393V8.6C26.1182 7.1635 25.0901 6 23.8207 6H5.44036Z" fill="#EE582B"/>
</svg>
