<svg width="50" height="50" viewBox="0 0 50 50" fill="none" xmlns="http://www.w3.org/2000/svg">
<path d="M44.7662 37.1758C43.9007 36.532 42.6773 36.7118 42.0334 37.5771C41.6793 38.0531 41.3004 38.52 40.9072 38.9648C40.1928 39.7729 40.2687 41.0073 41.0768 41.7217C41.4485 42.0503 41.9099 42.2116 42.3697 42.2116C42.9099 42.2116 43.4478 41.9886 43.8337 41.552C44.2994 41.0253 44.7482 40.4723 45.1675 39.9086C45.8114 39.0432 45.6318 37.8196 44.7662 37.1758Z" fill="white"/>
<path d="M48.0326 28.0162C46.9793 27.7868 45.9382 28.4552 45.7088 29.5091C45.5825 30.0889 45.43 30.6698 45.2551 31.2358C44.9366 32.2664 45.5139 33.36 46.5445 33.6785C46.7366 33.7377 46.9307 33.766 47.1218 33.766C47.9557 33.766 48.728 33.2275 48.9872 32.3888C49.1948 31.7171 49.3758 31.0278 49.5257 30.34C49.755 29.2861 49.0866 28.2456 48.0326 28.0162Z" fill="white"/>
<path d="M35.3651 43.4311C34.8465 43.7205 34.3096 43.9911 33.7694 44.2351C32.7863 44.679 32.3493 45.8359 32.7932 46.819C33.1194 47.5412 33.8302 47.9687 34.5744 47.9687C34.8431 47.9687 35.1162 47.9129 35.3771 47.7952C36.018 47.5057 36.6545 47.1849 37.2694 46.8416C38.2113 46.3159 38.5485 45.126 38.0225 44.1842C37.4968 43.2425 36.307 42.9053 35.3651 43.4311Z" fill="white"/>
<path d="M23.0469 9.375V24.191L15.8849 31.3529C15.1222 32.1157 15.1222 33.3523 15.8849 34.115C16.2663 34.4965 16.766 34.6871 17.266 34.6871C17.7658 34.6871 18.2657 34.4964 18.6472 34.115L26.3812 26.3811C26.7474 26.0148 26.9531 25.518 26.9531 25V9.375C26.9531 8.29629 26.0787 7.42188 25 7.42188C23.9213 7.42188 23.0469 8.29629 23.0469 9.375Z" fill="white"/>
<path d="M48.0469 4.19922C46.9682 4.19922 46.0938 5.07363 46.0938 6.15234V11.5758C41.5477 4.44609 33.6085 0 25 0C18.3223 0 12.0442 2.60049 7.32227 7.32227C2.60049 12.0442 0 18.3223 0 25C0 31.6777 2.60049 37.9558 7.32227 42.6777C12.0442 47.3995 18.3223 50 25 50C25.0165 50 25.0324 49.9979 25.0488 49.9976C25.0652 49.9979 25.0812 50 25.0977 50C25.8016 50 26.5124 49.9703 27.2106 49.9119C28.2855 49.8219 29.084 48.8775 28.994 47.8026C28.9039 46.7277 27.9608 45.9289 26.8847 46.0193C26.2944 46.0687 25.6933 46.0938 25.0977 46.0938C25.0812 46.0938 25.0652 46.0958 25.0488 46.0962C25.0324 46.0958 25.0165 46.0938 25 46.0938C13.3688 46.0938 3.90625 36.6312 3.90625 25C3.90625 13.3688 13.3688 3.90625 25 3.90625C32.4959 3.90625 39.3903 7.90166 43.1578 14.2578H37.7874C36.7087 14.2578 35.8343 15.1322 35.8343 16.2109C35.8343 17.2896 36.7087 18.1641 37.7874 18.1641H43.75C44.9395 18.1641 46.0522 17.8298 46.9997 17.2507C47.0606 17.2159 47.1192 17.1785 47.1751 17.1382C48.8749 16.0199 50 14.0964 50 11.9141V6.15234C50 5.07363 49.1256 4.19922 48.0469 4.19922Z" fill="white"/>
</svg>
