<svg width="1147" height="180" viewBox="0 0 1147 180" fill="none" xmlns="http://www.w3.org/2000/svg">
<path d="M0.567094 75.4699C0.567094 63.9412 3.06127 53.6874 8.04964 44.7083C13.038 35.6184 19.9663 28.5793 28.8345 23.5909C37.8135 18.4917 47.9565 15.9421 59.2635 15.9421C73.1201 15.9421 84.9813 19.6002 94.8471 26.9165C104.713 34.2327 111.309 44.2095 114.634 56.8467H83.3739C81.046 51.9691 77.7204 48.2556 73.3972 45.706C69.1848 43.1564 64.3627 41.8816 58.9309 41.8816C50.1736 41.8816 43.079 44.93 37.6473 51.0269C32.2155 57.1238 29.4996 65.2714 29.4996 75.4699C29.4996 85.6683 32.2155 93.816 37.6473 99.9129C43.079 106.01 50.1736 109.058 58.9309 109.058C64.3627 109.058 69.1848 107.783 73.3972 105.234C77.7204 102.684 81.046 98.9706 83.3739 94.0931H114.634C111.309 106.73 104.713 116.707 94.8471 124.023C84.9813 131.229 73.1201 134.831 59.2635 134.831C47.9565 134.831 37.8135 132.337 28.8345 127.349C19.9663 122.25 13.038 115.211 8.04964 106.231C3.06127 97.2524 0.567094 86.9985 0.567094 75.4699ZM174.282 135.33C165.192 135.33 156.989 133.39 149.672 129.51C142.467 125.631 136.758 120.088 132.546 112.883C128.444 105.677 126.393 97.2524 126.393 87.6082C126.393 78.0749 128.5 69.7055 132.712 62.5001C136.924 55.1839 142.689 49.5858 150.005 45.706C157.321 41.8261 165.524 39.8862 174.614 39.8862C183.704 39.8862 191.907 41.8261 199.223 45.706C206.54 49.5858 212.304 55.1839 216.516 62.5001C220.729 69.7055 222.835 78.0749 222.835 87.6082C222.835 97.1415 220.673 105.566 216.35 112.883C212.138 120.088 206.318 125.631 198.891 129.51C191.575 133.39 183.372 135.33 174.282 135.33ZM174.282 110.721C179.713 110.721 184.314 108.726 188.083 104.735C191.963 100.744 193.903 95.0353 193.903 87.6082C193.903 80.1811 192.018 74.4722 188.249 70.4815C184.591 66.4908 180.046 64.4955 174.614 64.4955C169.072 64.4955 164.471 66.4908 160.813 70.4815C157.155 74.3614 155.326 80.0703 155.326 87.6082C155.326 95.0353 157.099 100.744 160.647 104.735C164.305 108.726 168.85 110.721 174.282 110.721ZM232.266 87.442C232.266 77.9086 234.04 69.5393 237.587 62.3339C241.245 55.1284 246.178 49.5858 252.386 45.706C258.594 41.8261 265.522 39.8862 273.171 39.8862C279.268 39.8862 284.81 41.161 289.799 43.7106C294.898 46.2602 298.888 49.6967 301.771 54.0199V10.9537H330.204V134H301.771V120.698C299.11 125.132 295.286 128.679 290.297 131.34C285.42 134 279.711 135.33 273.171 135.33C265.522 135.33 258.594 133.39 252.386 129.51C246.178 125.52 241.245 119.922 237.587 112.716C234.04 105.4 232.266 96.9753 232.266 87.442ZM301.771 87.6082C301.771 80.5137 299.775 74.9156 295.785 70.8141C291.905 66.7125 287.138 64.6618 281.485 64.6618C275.831 64.6618 271.009 66.7125 267.018 70.8141C263.139 74.8048 261.199 80.3474 261.199 87.442C261.199 94.5365 263.139 100.19 267.018 104.402C271.009 108.504 275.831 110.555 281.485 110.555C287.138 110.555 291.905 108.504 295.785 104.402C299.775 100.301 301.771 94.7028 301.771 87.6082ZM438.237 86.1117C438.237 88.7722 438.071 91.5435 437.739 94.4257H373.389C373.832 100.19 375.661 104.624 378.876 107.728C382.201 110.721 386.248 112.217 391.014 112.217C398.109 112.217 403.042 109.224 405.813 103.238H436.076C434.524 109.335 431.697 114.823 427.596 119.7C423.605 124.578 418.561 128.402 412.464 131.173C406.367 133.945 399.55 135.33 392.012 135.33C382.922 135.33 374.83 133.39 367.735 129.51C360.641 125.631 355.098 120.088 351.107 112.883C347.117 105.677 345.121 97.2524 345.121 87.6082C345.121 77.9641 347.061 69.5393 350.941 62.3339C354.932 55.1284 360.474 49.5858 367.569 45.706C374.664 41.8261 382.811 39.8862 392.012 39.8862C400.991 39.8862 408.972 41.7707 415.956 45.5397C422.94 49.3087 428.372 54.685 432.251 61.6687C436.242 68.6524 438.237 76.8001 438.237 86.1117ZM409.139 78.6292C409.139 73.7517 407.476 69.8718 404.15 66.9897C400.825 64.1075 396.668 62.6664 391.679 62.6664C386.913 62.6664 382.867 64.0521 379.541 66.8234C376.326 69.5947 374.331 73.53 373.555 78.6292H409.139ZM525.901 113.381H482.336L475.353 134H445.589L487.824 17.2723H520.747L562.982 134H532.885L525.901 113.381ZM518.585 91.4326L504.119 48.699L489.819 91.4326H518.585ZM613.581 135.33C605.489 135.33 598.283 133.945 591.965 131.173C585.646 128.402 580.658 124.633 577 119.866C573.342 114.989 571.291 109.557 570.847 103.571H598.948C599.281 106.786 600.778 109.391 603.438 111.386C606.098 113.381 609.369 114.379 613.248 114.379C616.796 114.379 619.512 113.714 621.396 112.384C623.391 110.943 624.389 109.114 624.389 106.897C624.389 104.236 623.003 102.296 620.232 101.077C617.461 99.7466 612.971 98.3055 606.764 96.7536C600.112 95.2016 594.57 93.5943 590.136 91.9315C585.702 90.1578 581.877 87.4419 578.662 83.7838C575.448 80.0148 573.84 74.971 573.84 68.6525C573.84 63.3315 575.281 58.5094 578.164 54.1862C581.157 49.7521 585.48 46.2602 591.133 43.7106C596.898 41.161 603.715 39.8862 611.586 39.8862C623.225 39.8862 632.37 42.7684 639.022 48.5327C645.784 54.2971 649.663 61.9459 650.661 71.4792H624.389C623.946 68.2645 622.505 65.7149 620.066 63.8304C617.738 61.9459 614.634 61.0036 610.754 61.0036C607.429 61.0036 604.879 61.6687 603.105 62.999C601.332 64.2184 600.445 65.9366 600.445 68.1536C600.445 70.8141 601.831 72.8094 604.602 74.1396C607.484 75.4699 611.918 76.8001 617.904 78.1303C624.777 79.904 630.375 81.6776 634.698 83.4513C639.022 85.114 642.791 87.8854 646.005 91.7652C649.331 95.5342 651.049 100.633 651.16 107.063C651.16 112.495 649.608 117.372 646.504 121.695C643.511 125.908 639.132 129.233 633.368 131.672C627.715 134.111 621.119 135.33 613.581 135.33ZM682.856 31.5723C677.867 31.5723 673.766 30.1312 670.551 27.249C667.447 24.256 665.895 20.5979 665.895 16.2746C665.895 11.8405 667.447 8.18241 670.551 5.30024C673.766 2.30722 677.867 0.810713 682.856 0.810713C687.733 0.810713 691.724 2.30722 694.828 5.30024C698.042 8.18241 699.65 11.8405 699.65 16.2746C699.65 20.5979 698.042 24.256 694.828 27.249C691.724 30.1312 687.733 31.5723 682.856 31.5723ZM696.989 41.2165V134H668.556V41.2165H696.989ZM711.941 87.442C711.941 77.9086 713.715 69.5393 717.262 62.3339C720.92 55.1284 725.853 49.5858 732.061 45.706C738.269 41.8261 745.197 39.8862 752.846 39.8862C759.386 39.8862 765.095 41.2165 769.973 43.8769C774.961 46.5374 778.785 50.0292 781.446 54.3525V41.2165H809.88V134H781.446V120.864C778.675 125.187 774.795 128.679 769.806 131.34C764.929 134 759.22 135.33 752.68 135.33C745.142 135.33 738.269 133.39 732.061 129.51C725.853 125.52 720.92 119.922 717.262 112.716C713.715 105.4 711.941 96.9753 711.941 87.442ZM781.446 87.6082C781.446 80.5137 779.451 74.9156 775.46 70.8141C771.58 66.7125 766.813 64.6618 761.16 64.6618C755.506 64.6618 750.684 66.7125 746.694 70.8141C742.814 74.8048 740.874 80.3474 740.874 87.442C740.874 94.5365 742.814 100.19 746.694 104.402C750.684 108.504 755.506 110.555 761.16 110.555C766.813 110.555 771.58 108.504 775.46 104.402C779.451 100.301 781.446 94.7028 781.446 87.6082ZM843.752 135.33C838.764 135.33 834.662 133.889 831.448 131.007C828.344 128.014 826.792 124.356 826.792 120.033C826.792 115.598 828.344 111.885 831.448 108.892C834.662 105.899 838.764 104.402 843.752 104.402C848.63 104.402 852.621 105.899 855.724 108.892C858.939 111.885 860.546 115.598 860.546 120.033C860.546 124.356 858.939 128.014 855.724 131.007C852.621 133.889 848.63 135.33 843.752 135.33ZM919.613 135.33C910.523 135.33 902.32 133.39 895.004 129.51C887.798 125.631 882.09 120.088 877.877 112.883C873.776 105.677 871.725 97.2524 871.725 87.6082C871.725 78.0749 873.831 69.7055 878.043 62.5001C882.256 55.1839 888.02 49.5858 895.336 45.706C902.653 41.8261 910.856 39.8862 919.946 39.8862C929.036 39.8862 937.239 41.8261 944.555 45.706C951.871 49.5858 957.636 55.1839 961.848 62.5001C966.06 69.7055 968.167 78.0749 968.167 87.6082C968.167 97.1415 966.005 105.566 961.682 112.883C957.469 120.088 951.649 125.631 944.222 129.51C936.906 133.39 928.703 135.33 919.613 135.33ZM919.613 110.721C925.045 110.721 929.645 108.726 933.414 104.735C937.294 100.744 939.234 95.0353 939.234 87.6082C939.234 80.1811 937.35 74.4722 933.581 70.4815C929.922 66.4908 925.377 64.4955 919.946 64.4955C914.403 64.4955 909.803 66.4908 906.145 70.4815C902.486 74.3614 900.657 80.0703 900.657 87.6082C900.657 95.0353 902.431 100.744 905.978 104.735C909.636 108.726 914.181 110.721 919.613 110.721ZM1011.68 56.6804C1015.01 51.5812 1019.17 47.5905 1024.16 44.7083C1029.14 41.7153 1034.69 40.2188 1040.78 40.2188V70.3152H1032.97C1025.87 70.3152 1020.55 71.8672 1017.01 74.971C1013.46 77.9641 1011.68 83.285 1011.68 90.9338V134H983.251V41.2165H1011.68V56.6804ZM1089.63 39.8862C1096.17 39.8862 1101.87 41.2165 1106.75 43.8769C1111.74 46.5374 1115.56 50.0292 1118.23 54.3525V41.2165H1146.66V133.834C1146.66 142.369 1144.94 150.074 1141.5 156.946C1138.18 163.93 1133.02 169.473 1126.04 173.574C1119.17 177.676 1110.58 179.727 1100.27 179.727C1086.52 179.727 1075.38 176.457 1066.85 169.916C1058.31 163.487 1053.43 154.729 1052.21 143.644H1080.31C1081.2 147.191 1083.31 149.963 1086.63 151.958C1089.96 154.064 1094.06 155.117 1098.94 155.117C1104.81 155.117 1109.47 153.399 1112.9 149.963C1116.45 146.637 1118.23 141.261 1118.23 133.834V120.698C1115.45 125.021 1111.63 128.568 1106.75 131.34C1101.87 134 1096.17 135.33 1089.63 135.33C1081.98 135.33 1075.05 133.39 1068.84 129.51C1062.63 125.52 1057.7 119.922 1054.04 112.716C1050.49 105.4 1048.72 96.9753 1048.72 87.442C1048.72 77.9086 1050.49 69.5393 1054.04 62.3339C1057.7 55.1284 1062.63 49.5858 1068.84 45.706C1075.05 41.8261 1081.98 39.8862 1089.63 39.8862ZM1118.23 87.6082C1118.23 80.5137 1116.23 74.9156 1112.24 70.8141C1108.36 66.7125 1103.59 64.6618 1097.94 64.6618C1092.29 64.6618 1087.46 66.7125 1083.47 70.8141C1079.59 74.8048 1077.65 80.3474 1077.65 87.442C1077.65 94.5365 1079.59 100.19 1083.47 104.402C1087.46 108.504 1092.29 110.555 1097.94 110.555C1103.59 110.555 1108.36 108.504 1112.24 104.402C1116.23 100.301 1118.23 94.7028 1118.23 87.6082Z" fill="url(#paint0_radial_1141_2642)" fill-opacity="0.1"/>
<defs>
<radialGradient id="paint0_radial_1141_2642" cx="0" cy="0" r="1" gradientUnits="userSpaceOnUse" gradientTransform="translate(71.3736 75.7223) scale(1001.48 3808.31)">
<stop stop-color="#FF9933"/>
<stop offset="0.185062" stop-color="#FEA54B" stop-opacity="0.749358"/>
<stop offset="0.309255" stop-color="#FEA347" stop-opacity="0.789846"/>
<stop offset="0.378978" stop-color="#E8AC9B" stop-opacity="0.752307"/>
<stop offset="0.429091" stop-color="#9C9BF1" stop-opacity="0.753422"/>
<stop offset="0.546101" stop-color="#9898F6" stop-opacity="0.756653"/>
<stop offset="0.701054" stop-color="#45AFEC" stop-opacity="0.760245"/>
<stop offset="0.773345" stop-color="#48F378" stop-opacity="0.76077"/>
<stop offset="0.827833" stop-color="#4DE48A" stop-opacity="0.761166"/>
<stop offset="0.920805" stop-color="#379581" stop-opacity="0.763017"/>
<stop offset="1" stop-color="#138808" stop-opacity="0.77"/>
</radialGradient>
</defs>
</svg>
